<svg width="328" height="340" viewBox="0 0 328 340" fill="none" xmlns="http://www.w3.org/2000/svg">
<path d="M192.378 1C214.715 1 227.754 8.47082 236.026 20.3931C244.371 32.4213 247.956 49.095 251.027 67.7353C251.545 70.8803 252.048 74.0796 252.557 77.3183C258.052 112.269 264.27 151.812 298.097 177.333C332.34 203.168 369.23 195.295 401.323 188.446C403.91 187.894 406.466 187.349 408.986 186.828C425.983 183.318 441.288 180.949 454.065 184.881C466.712 188.773 477.089 198.923 484.009 221.041C497.982 265.696 504.918 292.597 504.918 319.462C504.918 346.326 497.982 373.227 484.009 417.882C470.036 462.538 460.422 488.533 445.218 510.263C430.016 531.99 409.183 549.515 372.604 577.113C354.415 590.836 340.498 595.594 328.478 595.188C316.442 594.781 306.111 589.195 295.065 581.758C292.241 579.857 289.376 577.838 286.43 575.762C266.372 561.628 242.598 544.875 202.857 544.875C164.366 544.875 137.102 560.596 113.122 574.423C108.737 576.951 104.463 579.416 100.25 581.709C86.5877 589.148 73.6101 594.778 59.5566 595.188C45.5385 595.596 30.3065 590.81 12.152 577.113C-24.4279 549.515 -45.2606 531.99 -60.4625 510.263C-75.6661 488.533 -85.2809 462.538 -99.2538 417.882C-106.212 395.645 -106.85 380.821 -103.608 369.686C-100.371 358.568 -93.2187 350.96 -84.1734 343.227C-81.8329 341.226 -79.3705 339.221 -76.8263 337.149C-59.6826 323.191 -38.8281 306.212 -26.5747 267.051C-15.0721 230.29 -18.7325 198.2 -22.0024 169.533C-22.7254 163.194 -23.4293 157.024 -23.946 151.007C-25.3757 134.357 -25.3813 118.899 -20.5363 104.196C-15.7001 89.5202 -5.99884 75.504 12.152 61.81C48.7342 34.2105 71.2192 19.0551 95.8081 10.7588C120.395 2.46304 147.161 1 192.378 1Z" stroke="#d3d3fd" stroke-width="1"/>
<path d="M193.723 60.5456C208.344 60.5924 216.907 60.8579 222.028 62.0801C224.575 62.688 226.21 63.5202 227.311 64.6311C228.408 65.7387 229.026 67.1756 229.434 69.1029C229.793 70.7933 229.982 72.825 230.208 75.2566C231.023 84.0198 232.321 97.9761 243.78 119.862C250.668 133.017 252.363 143.601 253.843 152.838C253.922 153.333 254.001 153.823 254.079 154.309C255.63 163.901 257.243 172.123 264.84 180.197C272.41 188.243 285.88 196.1 311.003 205.165C336.138 214.234 373.001 224.532 427.421 237.426C454.616 243.869 475.343 250.061 490.754 256.099C506.174 262.141 516.23 268.013 522.125 273.796C527.997 279.557 529.711 285.197 528.536 290.853C527.349 296.561 523.2 302.383 517.109 308.424C511.027 314.456 503.069 320.649 494.358 327.111C491.75 329.046 489.075 331.005 486.363 332.99C480.029 337.628 473.498 342.41 467.176 347.361C449.137 361.488 432.644 377.107 427.059 395.009C425.421 400.256 423.86 405.339 422.348 410.26C413.628 438.645 406.566 461.631 396.189 479.615C384.044 500.663 367.362 514.841 338.098 522.677C323.53 526.577 311.793 524.476 301.237 519.135C290.653 513.778 281.251 505.163 271.368 495.995L270.638 495.318C251.099 477.189 229.621 457.26 193.724 457.26C157.738 457.26 136.082 477.245 116.42 495.389L115.836 495.929C95.98 514.249 78.1151 530.378 49.3503 522.677C-8.46748 507.196 -32.3645 452.796 -39.5908 395.096C-41.3924 380.711 -40.2144 370.966 -37.0874 363.195C-33.9572 355.415 -28.8561 349.562 -22.6947 342.972C-22.0528 342.285 -21.4 341.591 -20.7373 340.887C-8.66122 328.048 6.68224 311.736 18.4697 273.959C29.4641 238.723 28.6876 212.249 28.016 189.352C27.9284 186.365 27.8425 183.438 27.7849 180.561C27.535 168.096 27.8135 156.577 30.7392 145.023C33.6627 133.477 39.2358 121.871 49.6073 109.255C70.3699 83.9992 91.8054 71.7894 115.318 65.9039C137.589 60.3292 161.734 60.4227 189.01 60.5284C190.57 60.5344 192.141 60.5405 193.723 60.5456Z" stroke="#d3d3fd"/>
<path d="M196.037 107.968C219.498 117.396 225.204 136.679 230.629 158.304C230.861 159.226 231.091 160.152 231.323 161.082C236.504 181.875 242.113 204.387 263.935 220.833C286.153 237.577 308.167 235.3 328.116 233.237C328.659 233.181 329.201 233.125 329.741 233.069C339.968 232.019 349.57 231.169 358.504 232.991C367.377 234.802 375.626 239.26 383.097 248.941C394.467 263.676 406.933 270.567 416.986 276.124C420.515 278.075 423.747 279.862 426.53 281.766C431.893 285.434 435.655 289.532 437.079 296.089C438.52 302.724 437.6 312.018 433.177 326.137C424.34 354.349 405.685 389.974 383.374 419.489C372.221 434.243 360.176 447.442 348.014 457.417C335.84 467.401 323.622 474.095 312.118 475.956C300.539 477.828 291.736 476.515 284.11 473.521C276.562 470.558 270.131 465.939 263.222 460.978L262.905 460.75C248.838 450.649 233.031 439.482 202.907 439.482C172.823 439.482 153.357 450.459 135.86 460.456L135.47 460.678C118.125 470.588 102.787 479.352 80.6945 475.954C58.2803 472.507 34.7964 460.221 16.191 443.04C-2.41722 425.857 -16.0461 403.873 -18.9083 381.107C-20.3263 369.829 -17.6488 361.827 -12.566 355.137C-7.43232 348.381 0.17185 342.93 8.74846 336.827L9.01778 336.636C26.0662 324.505 46.4592 309.995 56.4565 278.079C65.6572 248.706 62.293 221.344 59.2509 196.601C58.9801 194.399 58.7119 192.218 58.4553 190.057C55.3054 163.537 53.9306 140.337 70.3315 120.464C86.8389 100.462 106.287 92.5689 127.557 92.0298C148.89 91.4893 172.096 98.3465 196.037 107.968Z" stroke="#d3d3fd" stroke-width="1"/>
<path d="M135.352 107.5C146.73 107.5 157.289 113.639 167.346 123.403C177.399 133.165 186.888 146.491 196.124 160.737C199.98 166.686 203.797 172.803 207.591 178.882C212.864 187.334 218.093 195.713 223.321 203.47C232.316 216.815 241.377 228.423 250.806 235.55C269.58 249.742 284.606 255.447 299.409 257.591C309.811 259.096 320.114 258.841 331.488 258.559C336.25 258.441 341.201 258.318 346.425 258.318C363.999 258.318 383.141 269.001 396.119 285.419C409.086 301.825 415.842 323.886 408.752 346.589C401.663 369.289 381.173 385.686 357.648 399.975C348.814 405.34 339.576 410.395 330.48 415.373C327.472 417.019 324.48 418.656 321.523 420.294C309.634 426.876 298.322 433.455 288.934 440.552C284.303 444.052 280.217 445.743 276.526 446.075C272.845 446.405 269.504 445.387 266.347 443.369C259.993 439.307 254.46 431.248 248.578 422.177C248.034 421.339 247.487 420.492 246.937 419.639C241.564 411.315 235.842 402.45 228.937 395.452C221.312 387.724 212.199 382.227 200.454 382.227C188.715 382.227 179.137 387.72 170.814 395.437C163.48 402.236 157.08 410.801 151.012 418.923C150.201 420.008 149.397 421.085 148.596 422.149C141.778 431.213 135.308 439.285 128.245 443.357C124.731 445.383 121.089 446.406 117.194 446.075C113.295 445.742 109.091 444.048 104.466 440.552C86.9464 427.308 69.764 430.991 55.135 434.126C53.9605 434.378 52.8023 434.626 51.6618 434.862C43.9478 436.455 37.1102 437.46 31.3188 435.303C25.577 433.163 20.7395 427.857 17.1889 416.487C13.6585 405.182 15.1657 393.991 19.6729 382.818C24.1839 371.635 31.6887 360.497 40.1154 349.324C43.5883 344.719 47.2249 340.099 50.869 335.47C56.0433 328.896 61.2327 322.304 65.9902 315.707C74.1108 304.447 81.0454 293.082 84.6441 281.558C90.5294 262.712 88.6567 246.262 86.9834 231.564C86.6134 228.314 86.2532 225.149 85.9887 222.063C85.257 213.526 85.254 205.598 87.7342 198.057C90.21 190.529 95.1762 183.34 104.466 176.318C113.93 169.164 117.736 161.2 118.818 153.281C119.854 145.698 118.386 138.18 117.089 131.542C117.038 131.278 116.986 131.015 116.936 130.753C116.268 127.325 115.678 124.156 115.521 121.318C115.363 118.48 115.642 116.029 116.669 114.017C118.696 110.043 123.806 107.5 135.352 107.5Z" stroke="#d3d3fd"/>
</svg>
